HIERARCHY
ROOT Hips
{
	OFFSET	0.00	0.00	0.00
	CHANNELS 6 Xposition Yposition Zposition Zrotation Xrotation Yrotation
	JOINT LeftUpLeg
	{
		OFFSET	 0.126116	-0.014019	-0.065224
		CHANNELS 3 Zrotation Xrotation Yrotation
		JOINT LeftLeg
		{
			OFFSET	 0.000000	 0.000000	 0.569914
			CHANNELS 3 Zrotation Xrotation Yrotation
			JOINT LeftFoot
			{
				OFFSET	 0.000000	 0.000000	 0.544423
				CHANNELS 3 Zrotation Xrotation Yrotation
				JOINT LeftToeBase
				{
					OFFSET	 0.000000	 0.000000	 0.207117
					CHANNELS 3 Zrotation Xrotation Yrotation
					End Site
					{
						OFFSET	 0.000000	 0.000000	 0.207117
					}
				}
			}
		}
	}
	JOINT RightUpLeg
	{
		OFFSET	-0.124023	-0.008373	-0.065224
		CHANNELS 3 Zrotation Xrotation Yrotation
		JOINT RightLeg
		{
			OFFSET	 0.000000	 0.000000	 0.570047
			CHANNELS 3 Zrotation Xrotation Yrotation
			JOINT RightFoot
			{
				OFFSET	 0.000000	 0.000000	 0.544354
				CHANNELS 3 Zrotation Xrotation Yrotation
				JOINT RightToeBase
				{
					OFFSET	 0.000000	 0.000000	 0.207540
					CHANNELS 3 Zrotation Xrotation Yrotation
					End Site
					{
						OFFSET	 0.000000	 0.000000	 0.207540
					}
				}
			}
		}
	}
	JOINT Spine
	{
		OFFSET	 0.000184	-0.007763	 0.117403
		CHANNELS 3 Zrotation Xrotation Yrotation
		JOINT Spine1
		{
			OFFSET	 0.000000	 0.000000	 0.137269
			CHANNELS 3 Zrotation Xrotation Yrotation
			JOINT Spine2
			{
				OFFSET	 0.000000	 0.000000	 0.156879
				CHANNELS 3 Zrotation Xrotation Yrotation
				JOINT LeftShoulder
				{
					OFFSET	 0.080501	-0.002496	 0.160144
					CHANNELS 3 Zrotation Xrotation Yrotation
					JOINT LeftArm
					{
						OFFSET	 0.000000	 0.000000	 0.164363
						CHANNELS 3 Zrotation Xrotation Yrotation
						JOINT LeftForeArm
						{
							OFFSET	 0.000000	 0.000000	 0.364576
							CHANNELS 3 Zrotation Xrotation Yrotation
							JOINT LeftHand
							{
								OFFSET	 0.000000	 0.000000	 0.360812
								CHANNELS 3 Zrotation Xrotation Yrotation
								JOINT LeftHandIndex1
								{
									OFFSET	 0.000000	 0.000000	 0.086006
									CHANNELS 3 Zrotation Xrotation Yrotation
									JOINT LeftHandIndex2
									{
										OFFSET	 0.000000	 0.000000	 0.047236
										CHANNELS 3 Zrotation Xrotation Yrotation
										JOINT LeftHandIndex3
										{
											OFFSET	-0.004284	-0.000551	 0.038166
											CHANNELS 3 Zrotation Xrotation Yrotation
											End Site
											{
												OFFSET	-0.004284	-0.000551	 0.038166
											}
										}
									}
								}
							}
						}
					}
				}
				JOINT Neck
				{
					OFFSET	 0.000000	 0.000000	 0.176489
					CHANNELS 3 Zrotation Xrotation Yrotation
					JOINT Head
					{
						OFFSET	 0.000000	-0.001747	 0.077940
						CHANNELS 3 Zrotation Xrotation Yrotation
						End Site
						{
							OFFSET	 0.000000	-0.001747	 0.077940
						}
					}
				}
				JOINT RightShoulder
				{
					OFFSET	-0.080363	 0.000306	 0.159706
					CHANNELS 3 Zrotation Xrotation Yrotation
					JOINT RightArm
					{
						OFFSET	 0.000000	 0.000000	 0.164196
						CHANNELS 3 Zrotation Xrotation Yrotation
						JOINT RightForeArm
						{
							OFFSET	 0.000000	 0.000000	 0.365611
							CHANNELS 3 Zrotation Xrotation Yrotation
							JOINT RightHand
							{
								OFFSET	 0.000000	 0.000000	 0.360648
								CHANNELS 3 Zrotation Xrotation Yrotation
								JOINT RightHandIndex1
								{
									OFFSET	 0.000000	 0.000000	 0.069977
									CHANNELS 3 Zrotation Xrotation Yrotation
									JOINT RightHandIndex2
									{
										OFFSET	 0.000000	 0.000000	 0.052305
										CHANNELS 3 Zrotation Xrotation Yrotation
										JOINT RightHandIndex3
										{
											OFFSET	 0.009002	-0.000782	 0.042196
											CHANNELS 3 Zrotation Xrotation Yrotation
											End Site
											{
												OFFSET	 0.009002	-0.000782	 0.042196
											}
										}
									}
								}
							}
						}
					}
				}
			}
		}
	}
}
MOTION
Frames:    12
Frame Time: 0.03333334
 6.188061	-0.093348	 0.925464	 177.662300	 4.075594	-1.006240	 9.528356	 17.973330	-176.282500	-5.817305	-11.624710	 1.534502	-12.069240	 89.066230	 15.514710	-2.280973	 41.432970	-0.314737	 4.415174	-45.766950	-179.895700	-0.330896	-42.518170	 3.538579	-176.508200	 84.259460	-178.869600	 2.393685	 26.068890	-0.049442	-2.148719	 1.976811	 2.724546	-2.887141	-5.643347	 0.907040	-3.007495	-9.638243	-1.120663	-91.776180	 78.527400	 180.000000	 42.273200	 62.194530	-57.564710	-6.464299	-4.588393	-26.914290	 3.988415	-12.745740	-5.495982	-3.812334	 37.924440	-2.927599	-2.450526	 36.184240	 0.754587	-1.378229	 35.397820	-2.634230	-0.244008	 4.979025	-2.313879	-0.604397	-23.529700	-2.711498	 89.782090	 78.203890	-180.000000	-30.509170	 73.124800	 34.120490	 3.884170	-6.501016	 19.781600	-12.552790	-13.811190	 9.810478	 6.437017	 35.671460	-0.771858	 2.830251	 35.756010	-7.813440	-2.350882	 35.473990	 5.254307
 6.188923	-0.070235	 0.925328	 178.150500	 4.170346	-1.182070	 9.217583	 18.893100	-176.373900	-5.501619	-11.624490	 1.536174	-5.738092	 88.773480	 9.191726	-2.263226	 42.788450	-0.353085	 4.715936	-45.551960	-179.390300	 0.037934	-42.095340	 3.870363	-175.897200	 85.148280	-179.090600	 2.381057	 29.169880	 0.016989	-2.265768	 1.866657	 2.668769	-3.012784	-5.695795	 0.819052	-3.071864	-9.617889	-1.170010	-91.776180	 78.527420	-180.000000	 43.097590	 62.505750	-58.381020	-6.275097	-4.580474	-25.845890	 4.269374	-12.771150	-5.493500	-3.812334	 37.924440	-2.927599	-2.450526	 36.184240	 0.754587	-1.378229	 35.397820	-2.634230	-0.340626	 5.147285	-2.300877	-0.677147	-23.733360	-2.704070	 89.782120	 78.203870	 180.000000	-29.958470	 73.368510	 33.221340	 3.842555	-6.435808	 19.362070	-12.701980	-13.832450	 9.806675	 6.437017	 35.671460	-0.771858	 2.830251	 35.756010	-7.813440	-2.350882	 35.473990	 5.254307
 6.192667	-0.007442	 0.922597	 179.130400	 4.469588	-1.449424	 8.635786	 21.301910	-177.010300	-4.562431	-11.619890	 1.571092	 3.083418	 86.951170	 0.594899	-2.195655	 47.062220	-0.484245	 5.321635	-44.470790	-178.486300	 1.189535	-43.017860	 5.045678	-175.221900	 87.575450	-178.829000	 2.381173	 29.145050	 0.016447	-2.559087	 1.481234	 2.322884	-3.274925	-5.902662	 0.539802	-3.131208	-9.539753	-1.285412	-91.776180	 78.527400	-180.000000	 44.805740	 63.956630	-59.566820	-6.255462	-4.507934	-23.044990	 5.002113	-12.868870	-5.484191	-3.812334	 37.924440	-2.927599	-2.450526	 36.184240	 0.754587	-1.378229	 35.397820	-2.634230	-0.574905	 5.070618	-2.216460	-0.822659	-23.586150	-2.521509	 89.782140	 78.203830	 180.000000	-28.161350	 74.118080	 30.681430	 3.987482	-6.312862	 18.491940	-13.065150	-13.911350	 9.795832	 6.437017	 35.671460	-0.771858	 2.830251	 35.756010	-7.813440	-2.350882	 35.473990	 5.254307
 6.198442	 0.065889	 0.923837	 179.755400	 4.436472	-1.380924	 8.491481	 23.890600	-178.331900	-3.424581	-11.606850	 1.665736	 5.059483	 82.110540	-0.672238	-2.087579	 52.098700	-0.664921	 4.417419	-42.774210	-179.054300	 5.665480	-45.474410	 8.157128	 7.563329	 88.022760	 0.621754	 2.370537	 31.159580	 0.061135	-2.786748	 1.027360	 1.376804	-3.347257	-6.237187	 0.236931	-2.999897	-9.638409	-1.326589	-91.776180	 78.527400	-180.000000	 45.288750	 66.502450	-58.408050	-6.967029	-4.378232	-20.316600	 5.748820	-13.019280	-5.470171	-3.812334	 37.924440	-2.927599	-2.450526	 36.184240	 0.754587	-1.378229	 35.397820	-2.634230	-0.827891	 4.808810	-2.030362	-0.950380	-23.058740	-2.126070	 89.782140	 78.203830	 180.000000	-25.730940	 74.853390	 27.339470	 4.290765	-6.199920	 17.834640	-13.294650	-14.024870	 9.790846	 6.437017	 35.671460	-0.771858	 2.830251	 35.756010	-7.813440	-2.350882	 35.473990	 5.254307
 6.205642	 0.140882	 0.929466	 179.919600	 4.317148	-1.343420	 8.854988	 26.256830	-179.485300	-3.209983	-11.603020	 1.692175	 4.270788	 73.244870	 0.881078	-2.066061	 52.928060	-0.698174	 3.561113	-40.982100	-179.957900	 6.278371	-47.705600	 8.563731	 4.948641	 85.902280	 2.888458	 2.375273	 30.309310	 0.042109	-2.472709	 0.136866	 0.755053	-3.008541	-6.407687	-0.026181	-3.062985	-9.547304	-1.065202	-91.776180	 78.527400	 180.000000	 43.797630	 69.471960	-54.634580	-8.616414	-4.152283	-18.498080	 5.943140	-13.188350	-5.461557	-3.812334	 37.924440	-2.927599	-2.450526	 36.184240	 0.754587	-1.378229	 35.397820	-2.634230	-0.972658	 4.719746	-1.878797	-0.972710	-22.600760	-1.718531	 89.782100	 78.203870	-180.000000	-24.294550	 75.340310	 25.347360	 4.477990	-6.135957	 17.452010	-13.429590	-14.165650	 9.790591	 6.437017	 35.671460	-0.771858	 2.830251	 35.756010	-7.813440	-2.350882	 35.473990	 5.254307
 6.214962	 0.225668	 0.939457	-179.773900	 3.971281	-1.446184	 9.046596	 28.253310	 179.179300	-4.213259	-11.982010	 1.408831	 3.422727	 59.160300	 1.219272	-2.081509	 52.337190	-0.674368	 2.992982	-37.141330	 179.241900	 5.758092	-49.020880	 8.112728	 4.985396	 86.014500	 2.083829	 2.392122	 26.516690	-0.040008	-2.222618	-0.309210	 0.565455	-2.720185	-6.317641	-0.170612	-2.782598	-8.889727	-0.925862	-91.776180	 78.527400	 180.000000	 39.728640	 71.796950	-46.794470	-10.252030	-3.866513	-18.015130	 5.281931	-13.381930	-5.466921	-3.812334	 37.924440	-2.927599	-2.450526	 36.184240	 0.754587	-1.378229	 35.397820	-2.634230	-0.965266	 4.632479	-1.847470	-0.964012	-21.209220	-1.466468	 89.782120	 78.203870	 180.000000	-24.145100	 75.456300	 24.864640	 4.382701	-6.149672	 17.426670	-13.462870	-14.348840	 9.795845	 6.437017	 35.671460	-0.771858	 2.830251	 35.756010	-7.813440	-2.350882	 35.473990	 5.254307
 6.229754	 0.294451	 0.953680	-178.774400	 2.605629	-0.415228	 7.010421	 15.624390	 175.438700	-2.295186	-39.687700	 0.475784	 1.458807	 54.121560	 0.783024	-2.245410	 44.036230	-0.389665	 1.629046	-31.366400	 177.459800	 6.128356	-48.518370	 7.497107	 6.303545	 88.398310	 0.469332	 2.400036	 23.881310	-0.094856	-2.665721	 0.537605	-0.544708	-2.886888	-6.020581	-0.549153	-2.373005	-8.342158	-1.072763	-91.776180	 78.527400	-180.000000	 36.488140	 72.028690	-40.351920	-9.933318	-3.848731	-18.535890	 4.959868	-13.583990	-5.475628	-3.812334	 37.924440	-2.927599	-2.450526	 36.184240	 0.754587	-1.378229	 35.397820	-2.634230	-1.186524	 4.553961	-1.635745	-1.196235	-19.553730	-1.672498	 89.782090	 78.203830	-180.000000	-25.673590	 75.025720	 26.400220	 4.409475	-6.335395	 18.621130	-12.909310	-14.534100	 9.823048	 6.437017	 35.671460	-0.771858	 2.830251	 35.756010	-7.813440	-2.350882	 35.473990	 5.254307
 6.247130	 0.380673	 0.964578	-176.739400	 1.448190	 2.900567	 6.184940	 3.832466	 169.287600	-0.712208	-60.711280	-0.834914	 0.789853	 51.832270	 1.047940	-2.302895	 39.568130	-0.264122	-0.206842	-23.421060	 173.290000	 6.531242	-45.216380	 5.875158	-174.496800	 89.107590	-179.282500	 2.403501	 22.241110	-0.128240	-3.435079	 1.195453	-4.038254	-3.173059	-5.814716	-1.471228	-2.761126	-8.780513	-1.035109	-91.776180	 78.527400	-180.000000	 34.650710	 71.170150	-36.731590	-8.635707	-4.219148	-20.286270	 5.234702	-13.856870	-5.491467	-3.812334	 37.924440	-2.927599	-2.450526	 36.184240	 0.754587	-1.378229	 35.397820	-2.634230	-1.878464	 4.710643	-1.177103	-1.808854	-18.780690	-2.457126	 89.782120	 78.203870	 180.000000	-29.621440	 73.604370	 31.502500	 4.337230	-6.777658	 21.455390	-11.870560	-14.793040	 9.871586	 6.437017	 35.671460	-0.771858	 2.830251	 35.756010	-7.813440	-2.350882	 35.473990	 5.254307
 6.256270	 0.431991	 0.967243	-175.696900	 0.892500	 3.793067	 4.260595	-2.935476	 168.209300	 2.869757	-69.245410	 0.743002	 1.697355	 57.357820	 0.539636	-2.288909	 40.785620	-0.296893	-0.609874	-19.159120	 172.200000	 6.286359	-43.311810	 4.965404	-174.553400	 87.817980	-179.647000	 2.404985	 21.308880	-0.146996	-3.414323	 1.432441	-4.908147	-3.186075	-5.643634	-1.661817	-3.217457	-8.914891	-0.867296	-91.776180	 78.527400	-180.000000	 32.922980	 70.679390	-34.640570	-8.943333	-4.356356	-22.249790	 4.794497	-14.045850	-5.508917	-3.812334	 37.924440	-2.927599	-2.450526	 36.184240	 0.754587	-1.378229	 35.397820	-2.634230	-2.369195	 4.863106	-0.783679	-2.241299	-18.691590	-3.242892	 89.782110	 78.203870	 180.000000	-31.904700	 72.204770	 34.989780	 4.264032	-7.054736	 23.651940	-11.090140	-14.988300	 9.900954	 6.437017	 35.671460	-0.771858	 2.830251	 35.756010	-7.813440	-2.350882	 35.473990	 5.254307
 6.266030	 0.490916	 0.966868	-174.892100	 0.280950	 3.986347	 1.841664	-10.704220	 168.833600	 6.089131	-74.817930	 2.387434	 1.940958	 65.991570	 0.134218	-2.284583	 41.142590	-0.306691	-0.575417	-15.001710	 171.649900	 5.911299	-42.442650	 4.390095	-175.144100	 86.117230	-179.392500	 2.405792	 20.694110	-0.159294	-2.944550	 1.774320	-4.953805	-2.960874	-5.453218	-1.543711	-3.623716	-8.985859	-0.574804	-91.776180	 78.527400	 180.000000	 30.230780	 70.360670	-31.901690	-10.292060	-4.383233	-25.323690	 3.820550	-14.314940	-5.529120	-3.812334	 37.924440	-2.927599	-2.450526	 36.184240	 0.754587	-1.378229	 35.397820	-2.634230	-2.825106	 4.925897	-0.385076	-2.669306	-18.658890	-4.197139	 89.782120	 78.203870	 180.000000	-34.084340	 70.114750	 39.110070	 4.041759	-7.357735	 26.364430	-10.222210	-15.272210	 9.929405	 6.437017	 35.671460	-0.771858	 2.830251	 35.756010	-7.813440	-2.350882	 35.473990	 5.254307
 6.273558	 0.548115	 0.963305	-174.573800	 0.022252	 4.305574	 0.174525	-18.044400	 169.864000	 0.925125	-75.964350	-3.276261	 0.418624	 74.993770	-0.366747	-2.268949	 42.363970	-0.340929	-0.583132	-11.814890	 171.140300	 5.681809	-42.656300	 4.038841	-175.392500	 84.456990	-179.460800	 2.403545	 22.215260	-0.128765	-2.373176	 2.044915	-5.398324	-2.498576	-5.433026	-1.293488	-3.777428	-9.307085	-0.227829	-91.776180	 78.527400	-180.000000	 28.098220	 70.310280	-29.650200	-11.586930	-4.361905	-28.315290	 2.969759	-14.642890	-5.544694	-3.812334	 37.924440	-2.927599	-2.450526	 36.184240	 0.754587	-1.378229	 35.397820	-2.634230	-3.102691	 4.987589	-0.119685	-2.919915	-18.505460	-4.736895	 89.782120	 78.203930	 180.000000	-35.152520	 67.798490	 42.370330	 3.697922	-7.596749	 28.774570	-9.520878	-15.627110	 9.945618	 6.437017	 35.671460	-0.771858	 2.830251	 35.756010	-7.813440	-2.350882	 35.473990	 5.254307
 6.279787	 0.605359	 0.957790	-174.507300	 0.227650	 4.771123	-1.068554	-24.628700	 171.039400	-5.445323	-72.472520	-9.608779	-1.810810	 81.261850	-0.725465	-2.263190	 42.791100	-0.353161	-0.640702	-9.078073	 170.393600	 5.359592	-43.100720	 3.579919	-176.445400	 82.537940	-178.883500	 2.405011	 21.296810	-0.147245	-2.072971	 2.147268	-6.068866	-2.156320	-5.502834	-1.067609	-3.745314	-9.662579	-0.031974	-91.776180	 78.527400	 180.000000	 26.775070	 70.390020	-28.123130	-12.214950	-4.517004	-30.816060	 2.706316	-15.043620	-5.554618	-3.812334	 37.924440	-2.927599	-2.450526	 36.184240	 0.754587	-1.378229	 35.397820	-2.634230	-3.181552	 5.011343	-0.059830	-2.967182	-18.231100	-4.770101	 89.782120	 78.203870	 180.000000	-35.362400	 65.509740	 44.925030	 3.356133	-7.811875	 30.874170	-8.995160	-16.005580	 9.972801	 6.437017	 35.671460	-0.771858	 2.830251	 35.756010	-7.813440	-2.350882	 35.473990	 5.254307
